HIERARCHY
ROOT Hips
{
	OFFSET -14.64140 90.27770 -84.91600
	CHANNELS 6 Xposition Yposition Zposition Zrotation Xrotation Yrotation
	JOINT Spine
	{
		OFFSET 0.00000 13.20850 -1.60436
		CHANNELS 3 Zrotation Xrotation Yrotation
		JOINT Spine1
		{
			OFFSET 0.00000 8.61716 0.00000
			CHANNELS 3 Zrotation Xrotation Yrotation
			JOINT Spine2
			{
				OFFSET 0.00000 8.61717 0.00000
				CHANNELS 3 Zrotation Xrotation Yrotation
				JOINT Spine3
				{
					OFFSET 0.00000 8.61717 0.00000
					CHANNELS 3 Zrotation Xrotation Yrotation
					JOINT Neck
					{
						OFFSET 0.00000 11.07920 1.10792
						CHANNELS 3 Zrotation Xrotation Yrotation
						JOINT Neck1
						{
							OFFSET 0.00000 7.08032 0.00000
							CHANNELS 3 Zrotation Xrotation Yrotation
							JOINT Head
							{
								OFFSET 0.00000 7.08031 0.00000
								CHANNELS 3 Zrotation Xrotation Yrotation
								End site
								{
									OFFSET 0.00000 0.00000 0.00000
								}
							}
						}
					}
					JOINT RightShoulder
					{
						OFFSET -0.01000 7.91373 5.19711
						CHANNELS 3 Zrotation Xrotation Yrotation
						JOINT RightArm
						{
							OFFSET -18.41580 0.00000 0.00000
							CHANNELS 3 Zrotation Xrotation Yrotation
							JOINT RightForeArm
							{
								OFFSET -29.11090 0.00000 0.00000
								CHANNELS 3 Zrotation Xrotation Yrotation
								JOINT RightHand
								{
									OFFSET -24.65040 0.00000 0.00000
									CHANNELS 3 Zrotation Xrotation Yrotation
									JOINT RightHandThumb1
									{
										OFFSET -5.35114 -0.85590 3.97906
										CHANNELS 3 Zrotation Xrotation Yrotation
										JOINT RightHandThumb2
										{
											OFFSET -4.52789 0.00000 0.00000
											CHANNELS 3 Zrotation Xrotation Yrotation
											JOINT RightHandThumb3
											{
												OFFSET -2.46976 0.00000 0.00000
												CHANNELS 3 Zrotation Xrotation Yrotation
												End site
												{
													OFFSET 0.00000 0.00000 0.00000
												}
											}
										}
									}
									JOINT RightHandIndex1
									{
										OFFSET -14.26970 0.00000 2.88139
										CHANNELS 3 Zrotation Xrotation Yrotation
										JOINT RightHandIndex2
										{
											OFFSET -5.48836 0.00000 0.00000
											CHANNELS 3 Zrotation Xrotation Yrotation
											JOINT RightHandIndex3
											{
												OFFSET -3.01859 0.00000 0.00000
												CHANNELS 3 Zrotation Xrotation Yrotation
												End site
												{
													OFFSET 0.00000 0.00000 0.00000
												}
											}
										}
									}
									JOINT RightHandMiddle1
									{
										OFFSET -14.26970 0.00000 -0.09147
										CHANNELS 3 Zrotation Xrotation Yrotation
										JOINT RightHandMiddle2
										{
											OFFSET -6.17441 0.00000 0.00000
											CHANNELS 3 Zrotation Xrotation Yrotation
											JOINT RightHandMiddle3
											{
												OFFSET -3.56743 0.00000 0.00000
												CHANNELS 3 Zrotation Xrotation Yrotation
												End site
												{
													OFFSET 0.00000 0.00000 0.00000
												}
											}
										}
									}
									JOINT RightHandRing1
									{
										OFFSET -12.69180 0.00000 -3.06433
										CHANNELS 3 Zrotation Xrotation Yrotation
										JOINT RightHandRing2
										{
											OFFSET -5.62556 0.00000 0.00000
											CHANNELS 3 Zrotation Xrotation Yrotation
											JOINT RightHandRing3
											{
												OFFSET -3.56744 0.00000 0.00000
												CHANNELS 3 Zrotation Xrotation Yrotation
												End site
												{
													OFFSET 0.00000 0.00000 0.00000
												}
											}
										}
									}
									JOINT RightHandPinky1
									{
										OFFSET -11.11390 0.00000 -6.03719
										CHANNELS 3 Zrotation Xrotation Yrotation
										JOINT RightHandPinky2
										{
											OFFSET -4.52789 0.00000 0.00000
											CHANNELS 3 Zrotation Xrotation Yrotation
											JOINT RightHandPinky3
											{
												OFFSET -2.46976 0.00000 0.00000
												CHANNELS 3 Zrotation Xrotation Yrotation
												End site
												{
													OFFSET 0.00000 0.00000 0.00000
												}
											}
										}
									}
								}
							}
						}
					}
					JOINT LeftShoulder
					{
						OFFSET 0.01000 7.91373 5.19711
						CHANNELS 3 Zrotation Xrotation Yrotation
						JOINT LeftArm
						{
							OFFSET 18.41580 0.00000 0.00000
							CHANNELS 3 Zrotation Xrotation Yrotation
							JOINT LeftForeArm
							{
								OFFSET 29.11090 0.00000 0.00000
								CHANNELS 3 Zrotation Xrotation Yrotation
								JOINT LeftHand
								{
									OFFSET 24.65040 0.00000 0.00000
									CHANNELS 3 Zrotation Xrotation Yrotation
									JOINT LeftHandThumb1
									{
										OFFSET 5.35114 -0.85590 3.97906
										CHANNELS 3 Zrotation Xrotation Yrotation
										JOINT LeftHandThumb2
										{
											OFFSET 4.52789 0.00000 0.00000
											CHANNELS 3 Zrotation Xrotation Yrotation
											JOINT LeftHandThumb3
											{
												OFFSET 2.46977 0.00000 0.00000
												CHANNELS 3 Zrotation Xrotation Yrotation
												End site
												{
													OFFSET 0.00000 0.00000 0.00000
												}
											}
										}
									}
									JOINT LeftHandIndex1
									{
										OFFSET 14.26970 0.00000 2.88139
										CHANNELS 3 Zrotation Xrotation Yrotation
										JOINT LeftHandIndex2
										{
											OFFSET 5.48836 0.00000 0.00000
											CHANNELS 3 Zrotation Xrotation Yrotation
											JOINT LeftHandIndex3
											{
												OFFSET 3.01859 0.00000 0.00000
												CHANNELS 3 Zrotation Xrotation Yrotation
												End site
												{
													OFFSET 0.00000 0.00000 0.00000
												}
											}
										}
									}
									JOINT LeftHandMiddle1
									{
										OFFSET 14.26970 0.00000 -0.09147
										CHANNELS 3 Zrotation Xrotation Yrotation
										JOINT LeftHandMiddle2
										{
											OFFSET 6.17440 0.00000 0.00000
											CHANNELS 3 Zrotation Xrotation Yrotation
											JOINT LeftHandMiddle3
											{
												OFFSET 3.56744 0.00000 0.00000
												CHANNELS 3 Zrotation Xrotation Yrotation
												End site
												{
													OFFSET 0.00000 0.00000 0.00000
												}
											}
										}
									}
									JOINT LeftHandRing1
									{
										OFFSET 12.69180 0.00000 -3.06433
										CHANNELS 3 Zrotation Xrotation Yrotation
										JOINT LeftHandRing2
										{
											OFFSET 5.62556 0.00000 0.00000
											CHANNELS 3 Zrotation Xrotation Yrotation
											JOINT LeftHandRing3
											{
												OFFSET 3.56744 0.00000 0.00000
												CHANNELS 3 Zrotation Xrotation Yrotation
												End site
												{
													OFFSET 0.00000 0.00000 0.00000
												}
											}
										}
									}
									JOINT LeftHandPinky1
									{
										OFFSET 11.11390 0.00000 -6.03719
										CHANNELS 3 Zrotation Xrotation Yrotation
										JOINT LeftHandPinky2
										{
											OFFSET 4.52789 0.00000 0.00000
											CHANNELS 3 Zrotation Xrotation Yrotation
											JOINT LeftHandPinky3
											{
												OFFSET 2.46976 0.00000 0.00000
												CHANNELS 3 Zrotation Xrotation Yrotation
												End site
												{
													OFFSET 0.00000 0.00000 0.00000
												}
											}
										}
									}
								}
							}
						}
					}
					JOINT pCube4
					{
						OFFSET 0.00000 10.91090 1.10792
						CHANNELS 3 Zrotation Xrotation Yrotation
						End site
						{
							OFFSET 0.00000 0.00000 0.00000
						}
					}
				}
			}
		}
	}
	JOINT RightUpLeg
	{
		OFFSET -9.98441 0.00000 0.00000
		CHANNELS 3 Zrotation Xrotation Yrotation
		JOINT RightLeg
		{
			OFFSET 0.00000 -42.11790 0.00000
			CHANNELS 3 Zrotation Xrotation Yrotation
			JOINT RightFoot
			{
				OFFSET 0.00000 -45.00020 -0.00001
				CHANNELS 3 Zrotation Xrotation Yrotation
				JOINT RightForeFoot
				{
					OFFSET 0.00000 -3.74820 0.00000
					CHANNELS 3 Zrotation Xrotation Yrotation
					JOINT RightToeBase
					{
						OFFSET 0.00000 0.06325 14.43120
						CHANNELS 3 Zrotation Xrotation Yrotation
						End site
						{
							OFFSET 0.00000 0.00000 0.00000
						}
					}
				}
			}
		}
	}
	JOINT LeftUpLeg
	{
		OFFSET 9.98441 0.00000 0.00000
		CHANNELS 3 Zrotation Xrotation Yrotation
		JOINT LeftLeg
		{
			OFFSET 0.00000 -42.11800 0.00000
			CHANNELS 3 Zrotation Xrotation Yrotation
			JOINT LeftFoot
			{
				OFFSET 0.00000 -45.00070 0.00000
				CHANNELS 3 Zrotation Xrotation Yrotation
				JOINT LeftForeFoot
				{
					OFFSET 0.00000 -3.74824 0.00000
					CHANNELS 3 Zrotation Xrotation Yrotation
					JOINT LeftToeBase
					{
						OFFSET 0.00000 0.06325 14.43110
						CHANNELS 3 Zrotation Xrotation Yrotation
						End site
						{
							OFFSET 0.00000 0.00000 0.00000
						}
					}
				}
			}
		}
	}
}
MOTION
Frames: 4
Frame Time: 0.050000
0.04038284406726181 -0.04295468600661098 0.0311730102050055 0.037115213371597504 0.02193947975027559 0.018741211536429516 -2.248060638823151 0.2696123401802901 -0.8240652757398618 -0.9537895693486055 3.7431216167021732 0.35834353991250706 -1.138919827501409 -1.8989803423272003 -1.3968691650165312 0.14306673275969198 0.400631574179537 -0.8656819309038886 -0.09531929066638445 12.811813579224914 0.841333631190158 0.4802143863880481 0.5285850579983216 1.1504173018975394 0.3250999794047379 -13.812049078702813 0.06944067535040067 -3.683034400873119 1.3667171045124815 -15.650134166912684 73.43574387679159 15.920288033697004 -0.7186165642884446 -3.7320532927395216 7.342142478547537 42.491322254573305 22.758785505783777 -0.05180916537938051 -4.985528876834059 4.5125449344578055 -0.11286995604981494 -1.5833941882972504 -0.033005164732466626 -0.03649139479493095 -56.22793441284824 -0.022039094498969576 -0.0022117211065580877 -56.18849346710775 -38.770940088197065 0.02605362731672948 0.04743098569208016 0.010923343881268185 0.0170705166834135 0.002484763225166352 -0.009912988327397369 0.01803378399411372 0.04464672313035542 -36.70598891322101 -0.019648008532857055 -0.04681855386291616 -0.039123301964695927 -0.007223983208946396 -0.03649846483558666 -0.01702905108568277 0.019649250298657196 0.024368928882217415 -19.776236551519336 -0.01070517484375501 -0.029337517810694446 0.03345372622834024 -0.04113701332438288 -0.02518965378756088 -0.0030944374299160878 0.020451135830898675 -0.013966442125590497 24.015991842950054 -0.0067000458901892565 0.026155921281110852 28.84504967080153 -0.02126153099611202 -0.04593990396725002 28.88531849025321 -0.031113969866929433 0.01346985996248816 5.517868013948103 1.3191343979041914 13.80631651385685 -71.18448451520044 29.482453200531197 -6.982990182145665 -7.084651652282562 -7.716513716529417 -89.19841476027173 -9.889503098887632 -5.854993998625378 3.8397040907142275 -0.4982075935716413 0.06830291812925507 -8.106338490989518 -0.012376849502326964 -0.036824533533728464 44.59466525935545 -0.04719306305331245 0.0017085176461816287 44.60081697813198 12.487203260832594 0.03407111922566897 0.01912031373270288 -0.03867311798815622 0.02430210172318399 0.03120778921096386 0.028900384269097763 -0.04640512202283516 -0.0066109469595264 11.120376042237565 -0.017885407766403263 -0.015442982169192251 -0.01170854666474908 0.03831553354817656 0.04802018222826081 0.024203995443392797 -0.0265006046513613 -0.005995929152830185 4.764084852092595 0.02978710015219556 0.046037859072025095 0.018092358045347562 0.018125960837418135 -0.021028482196475143 -0.0003426778896982348 0.029950136086597554 0.038922978586885475 -5.611597685692213 -0.021462431638264834 0.008449174185771437 -6.700788349918648 -0.009198785951686836 0.03989442888529632 -6.729390843302941 0.019288111173268414 0.011316409286972166 -0.0034297208151399415 0.006059337038408214 -0.018358571403080136 8.006902874204481 3.5317400983079787 -19.229726089731198 -0.014321444599463454 10.374109177982024 -0.010994844090487843 -5.631133463164366 -15.665175281301384 3.166969484742788 -0.0057088656886364105 -0.003938463841265493 0.017089724053073733 -0.044057629032021865 4.730858060698275 0.04600525775186536 12.480664437537664 -8.236181719288231 6.860908269180061 -0.03303045461420527 46.423773168004985 0.035161090061665026 -4.3445275660013385 -14.702515540607843 -3.7972985424863737 -0.02543334030707945 0.03722615014139849 0.020167502155142042 -0.020177752299176992 -10.708614628569643 0.0201723149870617 
0.009994437867387594 -0.017580985678217417 -0.012336674989107878 0.003244743502931555 -0.013903017677225052 -0.04294507381200821 -2.32739686812041 0.17756116863137233 -0.8113673392477952 -0.972315913900104 3.686159058787298 0.38405327428674707 -1.1575980570920106 -1.9139906341620108 -1.3893951435472964 0.06314092350035884 0.43203132215054757 -0.8344705536443725 -0.1461346610640884 13.051756047509711 1.0909922265528635 0.5340390318373585 0.6163882654606938 1.8661769803694508 0.28872167225501577 -13.711319191371867 0.16337089935284835 -3.7509074560171927 1.4422014523015316 -15.724035360803278 73.22657539161398 15.309205614278472 -0.8873044559803651 -3.3393717639938267 7.457173665756925 42.4203290345785 22.898234957446974 -0.03296347324790927 -4.834916161011607 4.565117180422337 -0.13107621887532792 -1.5519278972081811 -0.03939402213604289 0.007876224633893031 -56.200512383030244 0.019471317378285693 0.015468750360767575 -56.19225183752327 -38.740056914928246 0.048152323093407126 -0.0043375359513991895 -0.0028103861777593435 -0.004521992637373029 -0.0015168420268762432 -0.04588884440976077 -0.027638496733493015 0.02914499683664011 -36.7343830643369 -0.015220822620162403 0.00019613935879652172 -0.0011021238321823575 0.01490736947283388 -0.03559249003510189 -0.03441192964110353 -0.030910880941870177 -0.01547026756598168 -19.782913742812394 -0.003434593739237556 -0.0028605651606072183 0.04398039839008529 -0.024452054570616805 0.02961856249426468 -0.044561827484635295 0.018752368251262905 -0.04030073774489655 24.066187729601978 -0.0029480025308491445 -0.01432657019905513 28.91269213226972 0.037740263823576425 0.027256527730498224 28.87075424421224 -0.001819749925747629 -0.036585368496372186 5.684397932588872 1.375424240085194 13.833148640698065 -70.99633770543826 29.850359203320906 -7.217110724520957 -7.145289635413206 -7.887137897704825 -89.572940894265 -8.838776842727965 -5.131664095951256 2.8459670490908313 -0.5002774283586581 0.07590731432938692 -8.101550545661205 -0.029342380992208674 -0.024011980290708942 44.59410947064635 0.04037335218672397 -0.024536867741179986 44.5513660462594 12.44873729503517 -0.04083531222476248 0.010317546625810406 0.018758860048348695 0.016468162910791933 -0.02275837023195488 0.011219721914096868 0.031690944936141184 -0.0002837225050530586 11.15418313575977 0.013351714544491302 0.008122628875538142 0.0007047895266494399 -0.007905831380878699 0.04452377556957316 0.019056072709859793 0.022722043922131598 0.019064450850947674 4.800055678209472 0.013052270277600073 0.0022613722668737815 0.026866211873297678 -0.003568082496897156 0.024640416460694127 0.03966792068037304 0.02390760473860193 -0.022776775882745057 -5.634547871228626 0.013888594752189324 -0.014476666968800818 -6.7243557064469135 0.009710218130096687 0.04500815991396338 -6.7533871576037345 -0.04467564579503517 -0.0017340964029565282 -0.022907244209724578 -0.0052694251063169235 0.026998569282171554 8.045500277454304 3.496228851205195 -19.17964752241139 0.034574275309050384 10.348958053514776 0.01091866495115152 -5.651222805340718 -15.671282553498568 3.2072473387405376 0.027625688974406083 0.007879853384515403 -0.009419757300828186 -0.04783711313371968 4.669658637842968 0.024069083998564153 12.48653347991042 -8.251659608814 6.914519311659318 0.019944163398841405 46.38009087173712 0.012248628605007354 -4.305629487294685 -14.700850346096724 -3.8512198598848317 -0.0019290018060049109 0.04696150383467797 -0.0329593137429561 -0.030967904020038305 -10.782596455778924 0.02452004893134875 
-0.009955112304801186 0.038308813431887995 -0.047565269176993226 -0.02616403149646301 -0.027668885755183028 0.022750603878095178 -2.464876131710698 0.10201127913975092 -0.8201706163750688 -0.9997066883678453 3.6885608836497132 0.36206361155738653 -1.196953791405381 -2.0147775701498007 -1.4519267748516402 -0.03474293461384065 0.408287856368042 -0.8811898422171272 -0.26950170838977394 13.211275496380006 1.3518979455959637 0.6313893983668863 0.7233832633666808 2.6923418312727603 0.2726303776021415 -13.613229132318471 0.17751156697035217 -3.8436802229096902 1.4540891017183142 -15.71413451150322 73.24746260953353 15.27900621188352 -1.0556160961293612 -2.39939443101236 7.608417396718685 42.89426448230466 22.845010537659366 -0.09870801317397548 -4.632448427472764 4.505345061528987 -0.17201132927083018 -1.6065110709676655 0.04026171605829853 -0.03398536093514823 -56.23110675730101 -0.03682527324298408 -0.00974031945922381 -56.23764406747329 -38.76788136024659 0.008309185644930644 -0.01581993253468077 0.014435995944453925 -0.007182268727194072 0.03150563540259324 0.02165026045291693 0.03237713075012866 -0.03838078744347728 -36.6936599800752 0.022557737083403223 -0.007856251769390052 -0.04444336760318445 0.03380656901045959 -0.0020576440448824116 0.00615439289948579 -0.021864136624274697 -0.035613082217571375 -19.745844758599908 0.002109757530865034 0.01658074291314164 0.030379809979052173 0.011845786253226048 -0.006735137827070306 0.017985328624167234 -0.03400580278962746 0.017285203631420398 24.041871744352388 -0.018531607889406027 -0.006640341337958039 28.867166977615085 -0.009927611510094655 0.02917027176166502 28.8796416847155 0.0028366606609813265 0.04052352686492597 5.796738676952626 1.409066515310277 13.871192912396817 -70.8184291092598 30.464044643464707 -7.481623898028576 -5.983233558070349 -8.739904084661521 -90.48765612380627 -7.761960292335549 -4.372845734018895 1.6444459425033942 -0.4744014656258087 0.04316720021956288 -8.119195649580638 -0.008335742622559521 -0.033469990976670055 44.583664686271895 -0.02879331567704227 0.0005836835019612383 44.539633312510354 12.485765422946686 -0.007266581050223257 -0.011467154217561408 -0.005225242999240359 -0.0447805473271099 -0.04599024706729632 -0.036841930084324494 0.01098798521626863 0.007110084636707286 11.13221438858071 -0.008903263672116675 0.011250444616489165 0.033222186710263 -0.022559144661956482 -0.010149909334066695 0.01422371576034545 -0.04093710441588591 0.019011412981349955 4.771399140463404 0.009241090164812863 0.015670362736755657 0.02414313197984934 0.027990173320128778 -0.038660812568182906 -0.0069121697356351345 -0.013568589731803731 -0.0007708798181900949 -5.640404098102257 -0.03399529972319674 0.027534687624666754 -6.719414879610276 0.019283609287209017 -0.03181328633142316 -6.696914154581986 0.00518332123167928 0.03214001850904972 -0.005910697562585907 0.041787625323722176 0.040942792939135234 8.058893630736163 3.459315240801109 -19.268835480897085 0.014866296818905752 10.347931896523518 -0.011204570923861179 -5.62500109292475 -15.674932958520316 3.1952991412013225 0.003689377965028598 0.005439979976560812 0.0446940016319577 -0.040866499659968476 4.659915089401949 0.028676143977091617 12.461554749861147 -8.225201454037643 6.898427135256327 -0.012361322207268707 46.350325653026395 -0.017159112830477538 -4.345878031651079 -14.71897648365439 -3.810732845103044 0.008594629712117378 -0.01909670755309702 0.02785749308987597 0.003585361962301954 -10.756703822494615 0.020977201777369853 
-0.01762103087449487 0.0327313813777131 -0.04028241984115585 -0.004716020014122632 -0.03009645541399025 -0.01797757730913305 -2.6196925451844484 0.14818775768255643 -0.80522096962856 -1.0310364640060419 3.7281819515158454 0.38210449653797784 -1.241306608594167 -2.0314100678558757 -1.5121774559002052 -0.06444376743144697 0.4622977770267932 -0.8718472362636808 -0.31855447488887817 13.444073424807039 1.7430112780054867 0.6255420778613762 0.747784577845846 3.4925098982791645 0.16560847022719943 -13.55728809000384 0.3165514715693935 -3.9628009523485987 1.448926867193371 -15.688673745534722 73.1394196943803 15.078677304211434 -1.3142818734181005 -1.6162194416438365 7.616535409342727 43.382751254194226 22.81029274762147 -0.08902224433958432 -4.443333965976461 4.522454529405366 -0.11995476085036454 -1.5678981928093334 -0.04694350990574224 0.04362593591359664 -56.24624036384329 -0.007093909878680136 -0.009900267323681941 -56.22146260912501 -38.732598095979455 0.01758489815216159 0.04579104605439748 0.003026165904629357 0.004311720486956618 0.025334426408176805 -0.0038103998238294768 -0.013132144907458064 0.013286272615293616 -36.70397222058371 0.03873198784924183 0.03015819169604386 0.0005747450791130142 -0.03989288806553436 0.011154352104323357 0.04198442143205821 0.0026188022162471737 0.04764670080460979 -19.725294944860927 0.0069843189106049254 0.020915889345856493 -0.0027502876575818008 -0.010115484354219668 0.008307596919327583 -0.03723854113712731 -0.016838193240824764 0.030381068641226375 24.042648272821292 -0.011842927579613633 0.01910279525514716 28.869644771819043 0.03366856872438034 -0.0018360126561261928 28.896234580093523 -0.037133149158074176 0.03820013502783577 6.020017270725506 1.4313752756477742 13.9514604961998 -70.4512959289167 30.976738881607115 -7.7466132586866445 -3.3552558839575592 -10.07371145291385 -91.66546277602507 -6.384358498586847 -3.621240219057201 0.39583895578624945 -0.49509220021959965 0.10126673945719361 -8.107941746199542 -0.008917679743112378 0.047500098708244586 44.520645059993505 -0.012468419303557294 -0.03061843367440649 44.562959630604006 12.478109723068693 -0.03311698675601301 -0.0035806515792095503 0.007404546873091651 0.013028493505670919 0.03655205024170161 -0.005386778254601693 0.03959890076976419 -0.010182918841799282 11.108514048885226 -0.019481199648446485 0.0034570706223690222 0.033168490145389314 -0.023548097996989224 0.02200630740970802 -0.008301106313012743 0.011568426757077942 -0.02076902818823723 4.776365205651905 -0.028756665620808697 0.040463811642816025 0.0050107408078823 -0.026686150162082634 -0.0399504130595849 0.007257114442843719 0.04708175976909994 0.023091643871231957 -5.587847432410231 0.019505515323710657 -0.04132138422681026 -6.679047507743383 -0.01694945007641268 -0.0064678055893267585 -6.714723210111843 -0.024112111682315314 -0.014421408607680949 -0.02991894703579059 -0.048518971958770835 -0.009696177081796648 8.031637149695166 3.484039231737154 -19.172197654201923 0.03129637744571362 10.43688510788784 0.0535238246855321 -5.608679152348276 -15.690303620827155 3.153322589586941 -0.018391203674460885 0.007997390390260402 0.015888553768213513 -0.013187410503054352 4.6704825123702145 -0.023053802115726933 12.424890086956836 -8.281435034648133 6.850746323168886 -0.011700144569553686 46.40207671545732 0.025979769541301406 -4.314785631997851 -14.731527158349978 -3.8631648549358557 -0.015951325555812246 -0.02359668654660659 -0.04212108751513618 0.0045951561763359445 -10.722863596138286 0.04252946661344976 
